<svg xmlns="http://www.w3.org/2000/svg" width="1365" height="768" viewBox="0 0 1365 768">
<g>
<path d="M 671.91 355.55 C669.96,356.57 665.50,357.49 661.50,357.72 C655.33,358.08 653.78,357.78 648.42,355.18 C637.32,349.82 630.05,339.47 629.19,327.85 C628.64,320.32 630.83,314.02 637.51,303.99 C640.45,299.56 643.40,294.26 644.05,292.22 C646.10,285.81 648.82,282.29 653.02,280.61 C656.84,279.08 657.00,278.83 657.00,274.51 C657.00,270.29 656.83,270.00 654.33,270.00 C652.28,270.00 650.04,271.75 644.81,277.42 C639.34,283.37 636.95,285.19 632.85,286.55 C621.25,290.40 606.91,285.89 596.80,275.20 L 591.59 269.69 L 596.05 265.79 C601.49,261.02 612.13,254.64 617.39,252.98 C626.40,250.14 636.86,253.04 647.14,261.25 C651.85,265.02 655.81,264.74 657.95,260.50 C665.05,246.43 671.86,241.12 675.08,247.15 C675.93,248.74 675.42,249.67 671.95,252.78 C667.48,256.78 664.55,261.46 665.52,263.03 C666.95,265.34 671.97,263.92 676.64,259.88 C683.97,253.54 689.03,251.73 698.00,252.24 C703.86,252.58 706.81,253.35 711.50,255.76 C720.13,260.20 730.00,267.69 730.00,269.82 C730.00,273.92 717.26,283.26 707.71,286.16 C694.79,290.08 686.53,287.57 676.31,276.60 C671.31,271.22 669.60,270.00 667.08,270.00 C664.12,270.00 664.00,270.16 664.00,274.30 C664.00,278.42 664.20,278.70 668.56,280.82 C672.44,282.70 673.50,283.90 675.61,288.77 C679.06,296.76 682.91,303.92 685.79,307.75 C691.85,315.80 692.84,328.63 688.15,338.50 C685.14,344.83 677.87,352.46 671.91,355.55 ZM 811.56 357.56 C809.53,359.07 803.00,359.57 803.00,358.22 C803.00,357.31 793.79,354.47 786.13,353.02 C778.71,351.62 710.10,351.63 704.89,353.03 C702.67,353.63 699.26,355.01 697.31,356.11 C695.36,357.20 693.03,357.96 692.14,357.79 C689.38,357.26 698.64,348.00 701.93,348.00 C703.40,348.00 705.07,347.53 705.63,346.97 C707.22,345.38 706.10,324.71 704.37,323.70 C703.62,323.26 703.00,322.44 703.00,321.87 C703.00,320.48 718.25,303.93 722.26,300.97 C725.27,298.74 726.18,298.62 737.57,298.87 C749.60,299.15 749.68,299.13 751.36,296.57 C752.73,294.48 753.83,294.00 757.27,294.02 C762.40,294.03 763.49,294.69 764.37,298.25 C764.74,299.76 765.43,301.00 765.91,301.00 C766.39,301.00 770.70,305.55 775.49,311.10 C781.82,318.44 783.90,321.50 783.10,322.30 C782.43,322.97 782.00,327.93 782.00,335.11 L 782.00 346.81 L 787.25 347.49 C794.92,348.47 799.70,349.84 807.00,353.17 C813.09,355.94 813.38,356.22 811.56,357.56 ZM 649.36 347.05 C653.86,349.06 657.93,348.35 661.36,344.96 C662.54,343.79 665.33,341.58 667.56,340.05 C669.79,338.52 673.77,334.74 676.40,331.67 C684.05,322.71 683.70,318.54 674.02,303.07 C671.81,299.53 670.00,295.60 670.00,294.33 C670.00,291.79 664.65,286.07 662.10,285.88 C656.14,285.46 652.81,288.08 649.28,296.00 C647.93,299.02 645.63,303.08 644.17,305.00 C642.70,306.92 641.49,308.73 641.46,309.00 C641.44,309.27 640.54,311.08 639.47,313.00 C638.00,315.65 637.53,318.45 637.53,324.50 C637.53,328.90 637.86,333.73 638.28,335.23 C639.36,339.17 644.86,345.04 649.36,347.05 ZM 854.62 440.55 C854.07,441.97 850.60,442.28 846.50,441.28 C843.03,440.42 841.93,438.89 842.46,435.61 C842.73,433.86 841.76,427.90 840.23,422.00 C837.53,411.61 837.47,411.50 834.50,411.50 L 831.50 411.50 L 831.21 420.87 C830.99,427.90 831.30,430.80 832.42,432.52 C834.55,435.77 832.52,437.27 827.13,436.40 C822.03,435.59 820.13,433.63 821.81,430.93 C823.44,428.32 823.43,405.83 821.80,404.20 C820.87,403.27 820.87,402.73 821.80,401.80 C823.46,400.14 823.46,376.86 821.80,375.20 C819.52,372.92 822.49,372.02 833.10,371.77 C841.73,371.56 844.09,371.83 846.29,373.27 C850.60,376.10 852.23,379.54 852.76,386.94 C853.43,396.20 852.49,400.37 848.81,404.57 L 845.71 408.09 L 847.95 417.80 C851.49,433.14 851.86,434.37 853.56,436.80 C854.45,438.06 854.93,439.75 854.62,440.55 ZM 484.83 438.33 C483.55,439.14 480.59,440.12 478.25,440.49 C474.83,441.04 473.88,440.86 473.38,439.55 C473.04,438.66 473.49,437.12 474.38,436.13 C475.71,434.67 476.00,431.87 476.00,420.61 C476.00,412.58 475.55,406.02 474.91,404.83 C474.12,403.35 474.12,402.48 474.91,401.69 C475.58,401.02 476.00,395.76 476.00,387.92 C476.00,377.87 475.69,374.99 474.50,374.00 C473.67,373.32 473.00,372.11 473.00,371.33 C473.00,370.21 474.44,369.97 479.75,370.20 C485.93,370.48 486.46,370.67 486.00,372.50 C485.73,373.60 485.50,380.12 485.50,387.00 L 485.50 399.50 L 491.00 399.14 C494.02,398.95 496.84,398.58 497.25,398.33 C498.47,397.60 498.11,376.34 496.84,373.54 C496.20,372.14 495.86,370.82 496.09,370.62 C497.13,369.69 507.65,369.08 508.88,369.88 C510.04,370.64 510.00,371.16 508.63,373.11 C506.27,376.49 506.17,426.38 508.53,429.74 C509.94,431.76 509.89,432.02 507.78,433.38 C506.53,434.19 503.36,435.16 500.75,435.54 C496.40,436.17 496.00,436.05 496.00,434.17 C496.00,433.04 496.45,431.84 497.00,431.50 C497.58,431.14 498.00,425.80 498.00,418.86 L 498.00 406.84 L 495.25 407.39 C493.74,407.69 490.79,408.23 488.69,408.59 L 484.89 409.24 L 485.21 421.37 C485.39,428.04 485.90,434.25 486.35,435.18 C486.93,436.39 486.51,437.26 484.83,438.33 ZM 746.63 420.63 C742.80,424.46 741.72,425.00 737.88,425.00 C732.60,424.99 727.70,422.25 725.55,418.09 C723.22,413.59 723.30,382.00 725.65,378.41 C730.48,371.04 743.62,371.39 749.22,379.04 C751.14,381.66 751.57,388.17 751.16,408.38 L 751.00 416.26 ZM 667.93 421.54 C663.96,423.59 658.09,423.35 654.19,420.97 C648.91,417.75 648.00,414.17 648.00,396.52 L 648.00 380.97 L 651.34 377.33 C654.23,374.17 655.40,373.63 660.17,373.24 C666.80,372.69 671.18,374.60 674.04,379.30 C675.76,382.11 675.99,384.39 676.00,398.17 C676.00,413.63 675.96,413.89 673.38,416.96 C671.94,418.67 669.49,420.73 667.93,421.54 ZM 593.02 422.48 C592.17,423.50 589.97,424.00 586.38,424.00 C581.72,424.00 581.00,423.74 581.00,422.06 C581.00,420.99 581.45,419.84 582.00,419.50 C583.50,418.57 583.33,377.73 581.82,376.22 C581.17,375.57 580.88,374.79 581.18,374.48 C581.49,374.18 586.54,373.87 592.40,373.80 C603.98,373.65 606.98,374.74 609.74,380.10 C612.34,385.16 610.63,395.58 606.65,398.87 C605.74,399.63 605.00,401.00 605.00,401.93 C605.00,404.82 609.88,416.25 612.14,418.65 C614.99,421.69 613.23,424.00 608.08,424.00 C603.96,424.00 602.03,422.60 601.94,419.55 C601.90,418.42 600.64,414.35 599.14,410.50 C596.79,404.48 596.06,403.50 593.95,403.50 C591.62,403.50 591.49,403.82 591.20,410.37 C590.97,415.71 591.28,417.65 592.59,419.10 C593.97,420.62 594.04,421.24 593.02,422.48 ZM 718.14 422.00 C718.47,424.30 718.18,424.50 714.50,424.56 C714.20,424.57 713.91,424.57 713.63,424.58 C711.03,424.63 709.50,424.66 708.64,423.91 C707.40,422.86 707.51,420.24 707.76,413.90 C707.78,413.43 707.80,412.93 707.81,412.41 L 708.26 400.89 L 702.38 401.20 L 696.50 401.50 L 696.21 409.27 C695.99,414.97 696.32,417.62 697.43,419.20 C699.70,422.44 697.77,424.00 691.48,424.00 C685.70,424.00 684.13,422.53 686.54,419.35 C688.68,416.51 688.54,399.25 686.35,396.83 C684.81,395.13 684.81,394.87 686.35,393.17 C688.62,390.66 688.74,374.86 686.50,373.00 C683.71,370.69 684.97,370.00 692.00,370.00 C695.85,370.00 699.00,370.24 699.00,370.54 C699.00,370.83 698.31,372.13 697.46,373.42 C696.31,375.18 695.99,377.90 696.21,384.14 L 696.50 392.50 L 707.50 392.50 L 707.50 370.00 L 713.75 370.00 C717.19,370.00 719.98,370.34 719.96,370.75 C719.95,371.16 719.29,372.62 718.50,374.00 C716.87,376.85 716.47,391.61 717.96,393.97 C718.54,394.88 718.51,395.89 717.88,396.65 C716.97,397.74 717.15,415.19 718.14,422.00 ZM 819.49 431.02 C819.15,431.56 817.45,431.97 815.69,431.94 C809.80,431.82 805.60,429.00 807.89,426.71 C808.50,426.10 809.00,424.17 809.00,422.42 C809.00,418.95 807.41,418.04 801.27,418.01 C798.68,418.00 797.92,418.48 797.43,420.41 C797.10,421.73 797.30,423.70 797.88,424.78 C799.32,427.46 798.46,428.00 792.80,428.00 C787.15,428.00 785.82,426.30 788.22,422.14 C789.76,419.48 791.77,411.97 796.55,391.08 C798.60,382.13 798.93,379.15 798.08,377.28 C797.49,375.98 797.00,374.70 797.00,374.45 C797.00,374.20 800.42,374.00 804.61,374.00 C811.46,374.00 812.14,374.17 811.49,375.75 C810.42,378.32 810.90,386.57 812.54,394.00 C813.34,397.58 814.66,405.09 815.48,410.69 C816.31,416.30 817.68,422.95 818.54,425.46 C819.39,427.98 819.82,430.48 819.49,431.02 ZM 536.15 425.25 C532.45,428.59 531.42,429.00 526.75,428.98 C521.20,428.95 518.18,427.34 516.12,423.32 C515.40,421.91 515.00,413.64 515.00,400.19 C515.00,382.79 514.75,379.03 513.50,378.00 C512.67,377.32 512.00,376.11 512.00,375.33 C512.00,374.22 513.37,373.97 518.25,374.20 C523.28,374.44 524.40,374.79 524.00,376.00 C523.72,376.83 523.37,386.21 523.21,396.86 C522.96,413.09 523.17,416.61 524.48,418.61 C526.51,421.70 529.05,421.64 532.08,418.42 C534.43,415.92 534.51,415.32 534.82,397.73 C535.04,384.74 534.78,378.96 533.90,377.31 C532.25,374.24 533.24,373.50 539.00,373.50 C544.30,373.50 546.01,374.39 544.18,376.22 C543.36,377.04 543.00,383.07 543.00,396.23 C543.00,417.62 542.56,419.46 536.15,425.25 ZM 782.72 422.54 C780.78,424.80 779.47,425.25 773.97,425.58 C766.79,426.01 765.55,425.70 762.15,422.62 C757.51,418.42 757.00,416.09 757.00,399.30 C757.01,385.42 757.24,383.11 758.95,380.31 C765.59,369.42 785.00,372.74 785.00,384.77 C785.00,392.06 777.84,395.01 777.17,388.00 C776.73,383.40 775.43,382.00 771.58,382.00 C766.31,382.00 766.00,382.97 766.00,399.55 C766.00,412.95 766.21,414.88 767.83,416.35 C771.82,419.95 777.00,417.02 777.00,411.15 C777.00,408.71 776.41,407.69 774.50,406.82 C772.69,405.99 772.00,404.90 772.00,402.84 C772.00,400.05 772.09,400.00 777.81,400.00 C784.89,400.00 787.79,401.66 786.13,404.76 C785.51,405.92 785.00,409.80 785.00,413.38 C785.00,418.72 784.59,420.37 782.72,422.54 ZM 526.00 358.11 C526.00,358.60 524.88,359.00 523.50,359.00 C522.12,359.00 521.00,358.55 521.00,358.00 C521.00,357.45 520.24,357.00 519.31,357.00 C517.98,357.00 518.22,356.38 520.42,354.08 C524.07,350.28 532.09,348.28 547.00,347.47 C553.33,347.12 559.06,346.80 559.75,346.75 C561.67,346.62 561.37,337.07 559.38,334.87 C557.90,333.23 557.90,332.95 559.48,331.38 C560.83,330.02 561.06,328.61 560.58,324.58 C559.93,319.08 560.93,313.86 562.75,313.25 C564.86,312.55 566.06,320.81 565.78,334.21 L 565.50 347.50 L 578.42 347.78 C587.75,347.98 591.55,347.72 592.10,346.85 C592.51,346.18 592.85,339.96 592.86,333.04 C592.88,321.00 593.88,315.00 595.88,315.00 C597.73,315.00 598.53,320.77 598.46,333.63 L 598.39 346.76 L 609.25 347.21 C619.36,347.62 620.29,347.84 622.75,350.30 C624.20,351.75 625.10,353.23 624.75,353.58 C624.40,353.94 621.24,353.72 617.72,353.11 C610.02,351.77 558.82,351.68 544.41,352.98 C534.66,353.86 526.00,356.27 526.00,358.11 ZM 565.00 425.36 C559.78,425.71 554.27,426.27 552.76,426.61 C549.54,427.34 548.24,425.29 549.92,422.14 C551.44,419.30 551.32,401.72 549.78,400.18 C548.81,399.21 548.81,398.54 549.78,396.99 C551.70,393.90 551.38,379.08 549.34,376.82 C548.43,375.81 547.86,374.82 548.09,374.61 C548.32,374.41 554.91,374.04 562.75,373.80 L 577.00 373.36 L 577.00 378.71 C577.00,384.94 575.12,386.58 571.91,383.13 C570.35,381.45 568.75,381.00 564.42,381.00 L 558.91 381.00 L 559.20 387.74 C559.45,393.33 559.81,394.54 561.32,394.83 C562.33,395.02 563.98,394.42 565.00,393.50 C566.02,392.58 567.67,391.99 568.68,392.19 C570.17,392.49 570.49,393.50 570.46,397.77 C570.41,403.60 568.56,406.71 566.89,403.75 C566.24,402.61 564.69,402.00 562.41,402.00 L 558.92 402.00 L 559.50 417.50 L 565.00 417.27 C569.12,417.10 570.92,416.54 572.16,415.02 C575.18,411.35 577.00,412.43 577.00,417.88 C577.00,420.59 576.44,423.20 575.75,423.74 C575.06,424.29 570.22,425.02 565.00,425.36 ZM 711.71 346.38 C712.10,346.77 713.57,346.96 714.96,346.80 C717.44,346.51 717.51,346.29 717.79,337.75 L 718.08 329.00 L 738.00 329.00 L 738.00 347.13 L 744.50 346.50 L 744.78 334.18 L 745.06 321.85 L 740.88 316.68 C736.11,310.78 729.00,304.07 727.47,304.03 C726.35,304.00 716.65,313.73 713.16,318.38 C711.22,320.97 711.00,322.52 711.00,333.47 C711.00,340.18 711.32,345.99 711.71,346.38 ZM 636.66 421.43 C636.22,422.58 634.65,423.00 630.78,423.00 L 625.50 423.00 L 625.50 401.77 C625.50,382.79 625.32,380.50 623.84,380.21 C622.93,380.03 621.03,381.14 619.61,382.66 C615.91,386.65 614.17,383.88 614.82,375.00 L 615.00 372.50 L 627.55 372.83 C636.76,373.08 640.51,372.82 641.66,371.87 C642.96,370.79 643.44,370.89 644.61,372.48 C646.45,374.99 646.37,379.02 644.44,381.78 C642.51,384.54 640.40,384.64 639.71,382.00 C639.40,380.80 638.35,380.00 637.09,380.00 C635.04,380.00 635.00,380.39 635.00,398.80 C635.00,411.47 635.37,417.97 636.13,418.73 C636.76,419.36 636.99,420.57 636.66,421.43 ZM 690.36 279.08 C692.09,280.13 694.77,280.99 696.32,281.00 L 699.15 281.00 L 696.12 277.33 C694.46,275.31 693.35,273.24 693.67,272.72 C694.66,271.12 702.15,272.95 705.22,275.54 C706.84,276.89 708.82,278.00 709.63,278.00 C711.87,278.00 716.23,275.48 718.85,272.67 L 721.20 270.15 L 717.10 267.56 C714.85,266.14 713.00,264.54 713.00,264.01 C713.00,263.47 711.87,262.75 710.49,262.41 C708.66,261.95 707.05,262.49 704.56,264.39 C700.87,267.20 698.62,267.56 694.50,266.00 C691.30,264.78 691.92,263.59 697.10,260.95 C702.13,258.38 701.25,256.60 695.28,257.27 C692.08,257.63 689.93,258.65 687.62,260.89 C685.85,262.60 683.75,264.02 682.95,264.04 C682.15,264.06 679.95,264.91 678.05,265.92 L 674.59 267.76 L 680.23 271.37 C683.33,273.35 686.17,275.47 686.54,276.07 C686.91,276.67 688.63,278.02 690.36,279.08 ZM 625.90 277.47 L 622.79 281.00 L 625.96 281.00 C629.72,281.00 632.23,279.79 637.15,275.61 C639.16,273.90 641.99,271.67 643.45,270.66 C645.53,269.22 645.86,268.53 644.96,267.45 C644.33,266.70 642.90,265.79 641.78,265.43 C640.66,265.07 638.41,263.59 636.79,262.14 C633.46,259.16 628.80,257.19 624.81,257.08 C620.60,256.96 620.68,258.52 625.02,261.39 C630.50,265.02 630.29,267.00 624.40,267.00 C620.09,267.00 614.00,264.53 614.00,262.78 C614.00,262.35 613.09,262.00 611.97,262.00 C609.73,262.00 607.94,265.15 609.82,265.77 C610.47,265.99 611.00,266.99 611.00,268.00 C611.00,269.53 610.24,269.80 606.25,269.66 C599.73,269.44 599.98,271.57 606.96,275.74 C609.96,277.53 612.66,279.00 612.96,279.00 C613.26,278.99 615.21,277.42 617.31,275.50 C620.31,272.74 621.94,272.00 625.06,272.00 C627.23,272.00 629.00,272.43 629.00,272.97 C629.00,273.50 627.60,275.52 625.90,277.47 ZM 750.67 346.33 C752.00,347.66 754.95,346.96 755.96,345.07 C756.53,344.00 757.00,340.18 757.00,336.57 L 757.00 330.00 L 769.92 330.00 L 770.21 338.25 L 770.50 346.50 L 776.50 346.50 L 776.50 323.50 L 750.00 322.94 L 750.00 334.30 C750.00,340.55 750.30,345.97 750.67,346.33 ZM 658.00 413.00 C660.58,415.58 662.81,415.53 665.69,412.83 C667.87,410.77 668.00,409.95 668.00,397.65 C668.00,386.96 667.71,384.33 666.35,382.83 C664.08,380.32 658.40,380.39 657.04,382.93 C656.47,384.00 656.00,390.75 656.00,397.93 C656.00,409.67 656.20,411.20 658.00,413.00 ZM 734.19 414.96 C736.91,417.50 739.19,417.55 741.37,415.14 C742.82,413.54 743.02,411.20 742.78,398.43 L 742.50 383.57 L 739.84 382.08 C737.71,380.89 736.68,380.83 734.59,381.78 L 732.00 382.96 L 732.00 397.94 C732.00,412.06 732.13,413.04 734.19,414.96 ZM 743.22 310.72 L 748.43 316.00 L 759.22 316.00 C765.15,316.00 770.00,315.69 770.00,315.30 C770.00,313.89 764.58,306.85 762.73,305.85 C760.30,304.56 738.00,303.40 738.00,304.57 C738.00,305.05 740.35,307.81 743.22,310.72 ZM 831.72 402.38 C832.84,403.50 840.30,401.96 842.29,400.20 C843.76,398.90 844.03,397.31 843.79,391.16 C843.53,384.42 843.25,383.52 840.84,381.73 C838.80,380.20 837.35,379.90 834.59,380.42 L 831.00 381.09 L 831.00 391.38 C831.00,397.04 831.32,401.99 831.72,402.38 ZM 571.44 456.78 C569.66,459.33 563.30,459.94 562.42,457.65 C562.13,456.91 562.04,453.20 562.20,449.40 L 562.50 442.50 L 566.00 442.80 C568.00,442.98 570.25,443.99 571.25,445.17 C573.42,447.72 573.52,453.81 571.44,456.78 ZM 667.69 457.83 C664.88,460.46 664.80,460.47 661.92,458.13 C658.76,455.57 658.43,445.62 661.44,443.42 C666.31,439.86 670.00,442.87 670.00,450.40 C670.00,454.60 669.54,456.09 667.69,457.83 ZM 739.25 457.19 C736.23,459.79 735.39,459.96 733.20,458.43 C729.39,455.76 729.07,447.08 732.65,443.50 C734.42,441.72 738.88,442.21 740.22,444.33 C741.75,446.73 741.08,455.63 739.25,457.19 ZM 591.41 392.49 C591.91,394.51 592.66,395.00 595.19,395.00 C599.81,395.00 602.00,392.53 602.00,387.32 C602.00,383.55 601.65,382.82 599.43,381.98 C598.02,381.44 595.80,381.00 594.50,381.00 C592.45,381.00 592.03,381.62 591.45,385.49 C591.08,387.96 591.06,391.11 591.41,392.49 ZM 776.84 456.02 C776.65,457.30 775.94,458.53 775.25,458.76 C774.32,459.06 774.00,457.10 774.00,451.08 L 774.00 443.00 L 777.80 443.00 C783.72,443.00 786.03,447.10 782.37,451.15 C780.86,452.81 780.86,453.14 782.36,455.42 C784.78,459.12 782.25,460.05 779.42,456.51 L 777.18 453.69 ZM 722.00 345.05 C722.00,347.41 722.38,347.45 725.47,345.43 C727.65,344.00 728.08,344.01 730.34,345.49 C733.53,347.58 734.58,346.02 732.58,342.16 C731.37,339.81 731.30,338.66 732.24,336.16 C733.69,332.33 732.66,331.09 730.00,333.50 C728.30,335.04 727.59,335.13 725.37,334.12 C722.13,332.64 721.49,333.17 723.02,336.04 C723.90,337.68 723.92,338.88 723.10,340.67 C722.50,342.00 722.00,343.97 722.00,345.05 ZM 623.00 457.00 C621.88,459.10 620.00,459.72 620.00,457.99 C620.00,456.68 623.83,442.83 624.33,442.33 C626.35,440.31 630.06,447.66 631.17,455.91 C631.58,458.91 629.40,459.85 628.52,457.06 C627.68,454.43 624.39,454.40 623.00,457.00 ZM 753.69 457.83 C750.82,460.52 749.55,460.55 747.00,458.00 C744.20,455.20 744.16,446.07 746.94,443.55 C749.49,441.24 754.35,442.65 754.82,445.83 C755.20,448.41 754.30,448.58 751.89,446.40 C749.35,444.10 748.00,445.49 748.00,450.44 C748.00,455.21 749.85,457.75 751.85,455.75 C752.79,454.81 752.55,454.16 750.78,452.80 L 748.50 451.04 L 752.25 451.02 C755.51,451.00 756.00,451.30 756.00,453.33 C756.00,454.60 754.96,456.63 753.69,457.83 ZM 761.71 457.00 C761.09,459.38 759.00,459.69 759.00,457.40 C759.00,455.06 762.08,444.70 763.19,443.31 C765.12,440.90 766.87,443.33 768.50,450.66 C769.42,454.78 769.94,458.39 769.65,458.68 C768.81,459.53 767.00,458.00 767.00,456.44 C767.00,454.15 762.33,454.64 761.71,457.00 ZM 726.79 450.49 C726.96,454.85 726.64,458.76 726.08,459.32 C724.91,460.49 724.24,459.09 723.79,454.50 C723.42,450.67 720.62,450.42 720.19,454.18 C720.02,455.65 719.23,457.39 718.44,458.05 C717.21,459.07 717.00,458.08 717.00,451.12 C717.00,444.57 717.29,443.00 718.50,443.00 C719.51,443.00 720.00,444.01 720.00,446.07 C720.00,450.53 723.38,449.74 723.82,445.18 C724.01,443.19 724.60,442.03 725.32,442.27 C726.06,442.51 726.61,445.59 726.79,450.49 ZM 639.05 451.33 C636.33,451.33 636.07,451.65 635.80,455.26 C635.30,461.76 634.00,458.19 634.00,450.33 C634.00,443.77 634.20,443.00 635.92,443.00 C636.97,443.00 638.04,443.56 638.29,444.25 C638.66,445.25 639.02,445.25 640.08,444.25 C643.10,441.39 644.00,442.81 644.00,450.44 C644.00,454.53 643.55,458.16 643.00,458.50 C642.40,458.87 642.00,457.57 642.00,455.23 C642.00,451.58 641.81,451.33 639.05,451.33 ZM 688.79 455.00 C687.71,455.00 685.98,456.01 684.94,457.25 L 683.07 459.50 L 683.03 457.23 C683.01,455.99 683.75,452.26 684.68,448.94 C686.08,443.89 686.68,442.96 688.37,443.20 C689.95,443.44 690.76,444.98 692.17,450.50 C694.29,458.83 694.31,459.00 692.91,459.00 C692.30,459.00 691.58,458.10 691.29,457.00 C690.99,455.85 689.93,455.00 688.79,455.00 ZM 649.82 455.92 C649.64,457.26 648.94,458.53 648.25,458.76 C647.32,459.06 647.00,457.10 647.00,451.08 L 647.00 443.00 L 650.88 443.00 C657.68,443.00 659.07,447.83 653.31,451.49 C651.47,452.66 650.01,454.51 649.82,455.92 ZM 584.50 457.50 C584.50,458.05 582.59,458.64 580.25,458.81 L 576.00 459.11 L 576.00 442.00 L 580.08 442.00 C584.44,442.00 585.30,444.21 581.17,444.82 C578.31,445.24 578.16,449.00 581.00,449.00 C582.10,449.00 583.00,449.49 583.00,450.09 C583.00,450.70 582.10,451.42 581.00,451.71 C577.91,452.52 578.46,455.81 581.75,456.18 C583.26,456.36 584.50,456.95 584.50,457.50 ZM 615.77 457.32 C612.44,460.65 611.66,460.66 609.07,457.37 C606.73,454.38 606.19,446.21 608.20,444.20 C609.90,442.50 615.94,442.68 616.62,444.45 C617.62,447.05 615.98,448.29 613.96,446.47 C611.33,444.08 610.00,445.46 610.00,450.59 C610.00,455.41 611.83,457.22 614.48,455.02 C617.40,452.59 618.51,454.58 615.77,457.32 ZM 800.51 410.02 C801.30,411.30 805.70,411.29 806.50,410.01 C806.83,409.46 806.63,405.56 806.04,401.33 C804.46,389.97 803.85,389.97 801.51,401.30 C800.63,405.56 800.18,409.48 800.51,410.02 ZM 655.72 340.37 C655.04,342.44 650.57,342.10 647.85,339.77 C644.23,336.67 641.66,332.33 642.36,330.51 C643.29,328.08 645.43,328.76 647.40,332.10 C648.41,333.81 650.78,336.12 652.66,337.23 C654.54,338.34 655.92,339.75 655.72,340.37 ZM 730.80 320.80 C730.14,321.46 728.66,322.00 727.50,322.00 C723.75,322.00 722.02,318.71 723.61,314.58 C724.32,312.71 729.06,312.46 730.80,314.20 C731.46,314.86 732.00,316.35 732.00,317.50 C732.00,318.65 731.46,320.14 730.80,320.80 ZM 663.08 455.15 C664.12,457.09 664.23,457.10 666.13,455.38 C667.52,454.13 668.01,452.58 667.80,450.15 C667.45,446.11 664.52,443.59 662.99,446.00 C661.70,448.01 661.75,452.67 663.08,455.15 ZM 734.19 455.79 C735.10,456.70 735.79,456.60 737.19,455.33 C740.74,452.12 738.22,442.91 734.61,445.91 C732.72,447.48 732.44,454.04 734.19,455.79 ZM 582.98 318.06 C582.98,320.50 582.53,323.17 582.00,324.00 C580.90,325.70 580.74,325.03 580.97,319.90 C581.10,317.05 580.49,315.68 578.07,313.40 C574.55,310.08 574.24,309.00 576.83,309.00 C580.14,309.00 583.00,313.20 582.98,318.06 ZM 565.67 455.33 C567.72,457.39 570.23,454.07 569.82,449.82 C569.57,447.26 568.99,446.43 567.25,446.18 C565.21,445.89 565.00,446.27 565.00,450.26 C565.00,452.69 565.30,454.97 565.67,455.33 ZM 761.69 346.85 C763.50,347.86 766.00,347.33 766.00,345.94 C766.00,344.55 763.73,340.00 763.04,340.00 C761.78,340.00 760.00,342.43 760.00,344.15 C760.00,345.11 760.76,346.33 761.69,346.85 ZM 755.68 299.34 C756.66,300.33 759.80,300.14 760.47,299.05 C761.47,297.42 757.38,295.84 756.11,297.36 C755.51,298.09 755.31,298.98 755.68,299.34 ZM 763.64 337.31 C764.68,338.35 766.00,337.03 766.00,334.94 C766.00,333.87 765.33,333.00 764.50,333.00 C763.02,333.00 762.40,336.07 763.64,337.31 ZM 777.00 448.00 C777.00,449.51 777.52,450.05 778.75,449.81 C779.71,449.62 780.50,448.81 780.50,448.00 C780.50,447.19 779.71,446.38 778.75,446.19 C777.52,445.95 777.00,446.49 777.00,448.00 ZM 687.68 452.35 C688.06,452.73 688.75,452.65 689.22,452.18 C690.21,451.19 689.20,448.00 687.89,448.00 C686.85,448.00 686.69,451.35 687.68,452.35 ZM 763.64 452.31 C764.57,453.24 766.00,452.11 766.00,450.44 C766.00,449.65 765.33,449.00 764.50,449.00 C762.99,449.00 762.44,451.11 763.64,452.31 ZM 650.00 447.57 C650.00,448.50 650.68,449.01 651.67,448.82 C654.18,448.34 654.52,446.00 652.08,446.00 C650.85,446.00 650.00,446.65 650.00,447.57 ZM 580.22 279.82 C580.85,280.45 580.87,281.42 580.25,282.51 C579.36,284.12 579.26,284.12 578.65,282.52 C577.80,280.31 578.87,278.47 580.22,279.82 Z" fill="rgb(20,41,18)"/>
<path d="M 566.41 345.64 C566.86,346.79 569.41,347.01 579.73,346.78 L 592.21 346.51 C592.17,346.67 592.14,346.78 592.10,346.85 C591.55,347.72 587.75,347.98 578.42,347.78 L 565.50 347.50 L 565.78 334.21 C566.06,320.81 564.86,312.55 562.75,313.25 C560.93,313.86 559.93,319.08 560.58,324.58 C561.06,328.61 560.83,330.02 559.48,331.38 C557.90,332.95 557.90,333.23 559.38,334.87 C561.37,337.07 561.67,346.62 559.75,346.75 C559.43,346.78 557.99,346.86 555.89,346.98 L 559.50 346.50 L 559.50 341.66 C559.50,336.90 559.43,336.79 555.50,335.46 C547.99,332.92 541.44,322.34 543.59,316.23 C544.10,314.76 546.10,312.51 548.01,311.22 C550.42,309.61 551.65,307.91 552.00,305.73 C553.50,296.28 572.01,295.33 576.18,304.49 C576.80,305.87 578.80,307.86 580.60,308.93 L 583.89 310.87 L 584.20 306.72 C584.45,303.27 585.08,302.18 587.90,300.28 C595.07,295.47 608.00,299.24 608.00,306.15 C608.00,307.38 609.71,309.89 612.00,312.00 C615.07,314.83 616.00,316.44 616.00,318.90 C616.00,326.41 607.69,336.00 601.18,336.00 C599.74,336.00 599.11,336.93 598.64,339.75 C598.56,340.22 598.49,340.67 598.42,341.08 L 598.46 333.63 C598.53,320.77 597.73,315.00 595.88,315.00 C593.88,315.00 592.88,321.00 592.86,333.04 C592.86,334.41 592.85,335.74 592.82,337.01 L 588.54 335.12 C586.03,334.01 583.71,332.40 583.38,331.55 C582.55,329.38 579.75,329.62 576.53,332.15 C575.03,333.34 572.15,334.87 570.15,335.55 C566.94,336.65 566.46,337.25 566.18,340.51 C566.01,342.54 566.11,344.85 566.41,345.64 ZM 649.36 347.05 C644.86,345.04 639.36,339.17 638.28,335.23 C638.06,334.44 637.86,332.75 637.73,330.67 C638.02,332.43 638.42,333.92 638.93,334.87 C640.53,337.85 643.39,337.76 642.37,334.75 C640.87,330.36 643.10,317.71 646.08,313.67 C648.21,310.80 648.22,310.64 646.45,309.34 C645.44,308.60 644.29,308.00 643.88,308.00 C642.49,308.00 639.36,312.77 638.10,316.69 C638.40,315.27 638.85,314.12 639.47,313.00 C640.54,311.08 641.44,309.27 641.46,309.00 C641.49,308.73 642.70,306.92 644.17,305.00 C645.63,303.08 647.93,299.02 649.28,296.00 C652.81,288.08 656.14,285.46 662.10,285.88 C664.65,286.07 670.00,291.79 670.00,294.33 C670.00,295.60 671.81,299.53 674.02,303.07 C683.70,318.54 684.05,322.71 676.40,331.67 C673.77,334.74 669.79,338.52 667.56,340.05 C665.33,341.58 662.54,343.79 661.36,344.96 C657.93,348.35 653.86,349.06 649.36,347.05 ZM 804.31 358.94 C796.23,359.37 779.80,359.62 749.76,359.82 C694.00,360.21 690.99,360.14 690.34,358.43 C689.37,355.92 698.14,348.00 701.90,348.00 C703.38,348.00 705.06,347.54 705.63,346.97 C705.06,347.54 703.39,348.00 701.93,348.00 C701.92,348.00 701.91,348.00 701.90,348.00 C698.58,348.06 689.39,357.26 692.14,357.79 C693.03,357.96 695.36,357.20 697.31,356.11 C699.26,355.01 702.67,353.63 704.89,353.03 C710.10,351.63 778.71,351.62 786.13,353.02 C793.79,354.47 803.00,357.31 803.00,358.22 C803.00,358.60 803.52,358.83 804.31,358.94 ZM 526.00 358.11 C526.00,356.27 534.66,353.86 544.41,352.98 C558.82,351.68 610.02,351.77 617.72,353.11 C621.24,353.72 624.40,353.94 624.75,353.58 C625.10,353.23 624.20,351.75 622.75,350.30 C620.82,348.36 619.83,347.82 614.57,347.47 L 622.30 347.83 L 627.28 352.80 C630.06,355.59 631.95,358.27 631.57,358.89 C631.08,359.68 616.17,359.95 579.19,359.83 C512.36,359.61 509.39,359.31 519.57,353.61 C526.00,350.02 532.54,348.24 540.39,347.95 C529.64,348.96 523.49,350.88 520.42,354.08 C518.22,356.38 517.98,357.00 519.31,357.00 C520.24,357.00 521.00,357.45 521.00,358.00 C521.00,358.55 522.12,359.00 523.50,359.00 C524.88,359.00 526.00,358.60 526.00,358.11 ZM 743.22 310.72 C740.35,307.81 738.00,305.05 738.00,304.57 C738.00,303.40 760.30,304.56 762.73,305.85 C764.58,306.85 770.00,313.89 770.00,315.30 C770.00,315.69 765.15,316.00 759.22,316.00 L 748.43 316.00 ZM 690.36 279.08 C688.63,278.02 686.91,276.67 686.54,276.07 C686.17,275.47 683.33,273.35 680.23,271.37 L 674.59 267.76 L 678.05 265.92 C679.95,264.91 682.15,264.06 682.95,264.04 C683.75,264.02 685.85,262.60 687.62,260.89 C689.93,258.65 692.08,257.63 695.28,257.27 C701.25,256.60 702.13,258.38 697.10,260.95 C691.92,263.59 691.30,264.78 694.50,266.00 C695.02,266.20 695.50,266.36 695.96,266.49 L 695.93 266.49 C693.22,266.12 690.74,265.39 690.43,264.88 C689.70,263.71 680.33,264.85 677.08,266.50 L 674.66 267.73 L 677.36 269.50 C679.29,270.76 683.20,271.48 691.07,272.00 C692.21,272.08 693.33,272.17 694.39,272.26 C694.05,272.35 693.80,272.51 693.67,272.72 C693.35,273.24 694.46,275.31 696.12,277.33 L 699.15 281.00 L 696.32 281.00 C694.77,280.99 692.09,280.13 690.36,279.08 ZM 702.76 273.43 C703.14,273.81 704.36,273.87 705.47,273.57 C706.59,273.27 708.06,273.02 708.75,273.01 C709.56,273.00 710.00,271.42 710.00,268.47 C710.00,262.89 708.11,261.81 703.85,264.95 C702.65,265.84 701.74,266.36 700.67,266.60 C701.88,266.22 703.11,265.50 704.56,264.39 C707.05,262.49 708.66,261.95 710.49,262.41 C711.87,262.75 713.00,263.47 713.00,264.01 C713.00,264.54 714.85,266.14 717.10,267.56 L 721.20 270.15 L 718.85 272.67 C716.23,275.48 711.87,278.00 709.63,278.00 C708.82,278.00 706.84,276.89 705.22,275.54 C703.87,274.39 701.66,273.40 699.52,272.79 C701.37,273.02 702.59,273.25 702.76,273.43 ZM 612.59 273.14 C613.14,274.03 614.09,274.08 620.86,272.85 C619.78,273.39 618.69,274.23 617.31,275.50 C615.21,277.42 613.26,278.99 612.96,279.00 C612.66,279.00 609.96,277.53 606.96,275.74 C599.98,271.57 599.73,269.44 606.25,269.66 C610.24,269.80 611.00,269.53 611.00,268.00 C611.00,266.99 610.47,265.99 609.82,265.77 C607.94,265.15 609.73,262.00 611.97,262.00 C613.09,262.00 614.00,262.35 614.00,262.78 C614.00,263.23 614.39,263.72 615.04,264.20 C612.16,262.85 610.29,263.44 612.06,265.58 C612.71,266.36 612.94,268.10 612.58,269.53 C612.23,270.94 612.23,272.56 612.59,273.14 ZM 645.42 268.62 C645.45,267.95 644.79,267.26 643.49,266.40 C641.25,264.93 640.06,264.86 634.02,265.86 C631.37,266.30 629.14,266.60 627.23,266.77 C630.15,266.15 629.42,264.30 625.02,261.39 C620.68,258.52 620.60,256.96 624.81,257.08 C628.80,257.19 633.46,259.16 636.79,262.14 C638.41,263.59 640.66,265.07 641.78,265.43 C642.90,265.79 644.33,266.70 644.96,267.45 C645.31,267.88 645.48,268.24 645.42,268.62 ZM 625.90 277.47 C627.60,275.52 629.00,273.50 629.00,272.97 C629.00,272.48 627.51,272.07 625.60,272.01 C628.18,271.70 631.49,271.72 633.55,272.11 C636.69,272.70 638.91,272.52 641.40,271.48 C642.74,270.92 643.73,270.43 644.39,269.96 C644.13,270.18 643.82,270.41 643.45,270.66 C641.99,271.67 639.16,273.90 637.15,275.61 C632.23,279.79 629.72,281.00 625.96,281.00 L 622.79 281.00 ZM 655.72 340.37 C655.92,339.75 654.54,338.34 652.66,337.23 C650.78,336.12 648.41,333.81 647.40,332.10 C645.43,328.76 643.29,328.08 642.36,330.51 C641.66,332.33 644.23,336.67 647.85,339.77 C650.57,342.10 655.04,342.44 655.72,340.37 ZM 582.84 282.00 C581.62,283.65 580.37,284.99 580.06,284.98 C579.31,284.96 575.00,280.38 575.00,279.61 C575.00,279.27 575.62,279.00 576.38,279.00 C577.14,279.00 578.00,278.10 578.29,277.00 C578.58,275.90 579.35,275.00 580.00,275.00 C580.65,275.00 581.42,275.90 581.71,277.00 C582.00,278.10 582.87,279.00 583.65,279.00 C584.69,279.00 584.47,279.79 582.84,282.00 ZM 582.98 318.06 C583.00,313.20 580.14,309.00 576.83,309.00 C574.24,309.00 574.55,310.08 578.07,313.40 C580.49,315.68 581.10,317.05 580.97,319.90 C580.74,325.03 580.90,325.70 582.00,324.00 C582.53,323.17 582.98,320.50 582.98,318.06 ZM 746.24 282.50 C745.69,285.42 744.50,285.71 743.12,283.26 C742.59,282.30 741.37,281.51 740.41,281.51 C739.45,281.50 738.48,280.94 738.25,280.25 C738.01,279.52 738.69,279.00 739.88,279.00 C741.01,279.00 742.41,278.10 743.00,277.00 C743.59,275.90 744.45,275.00 744.92,275.00 C746.06,275.00 746.84,279.40 746.24,282.50 ZM 755.68 299.34 C755.31,298.98 755.51,298.09 756.11,297.36 C757.38,295.84 761.47,297.42 760.47,299.05 C759.80,300.14 756.66,300.33 755.68,299.34 ZM 580.22 279.82 C578.87,278.47 577.80,280.31 578.65,282.52 C579.26,284.12 579.36,284.12 580.25,282.51 C580.87,281.42 580.85,280.45 580.22,279.82 ZM 605.43 347.05 L 598.39 346.76 L 598.39 345.50 L 598.39 345.50 C599.10,346.57 601.05,346.83 605.43,347.05 ZM 812.53 356.54 C812.68,355.82 811.25,355.10 807.00,353.17 C806.30,352.85 805.61,352.55 804.95,352.26 C808.89,353.74 812.01,355.21 812.53,356.04 C812.61,356.18 812.60,356.35 812.53,356.54 ZM 622.48 266.86 C620.34,266.70 618.68,266.20 617.10,265.35 C618.67,266.04 620.63,266.61 622.48,266.86 ZM 811.56 357.56 C811.86,357.34 812.10,357.15 812.27,356.97 C811.96,357.37 811.43,357.80 810.78,358.16 C810.53,358.30 810.00,358.43 809.16,358.54 C810.14,358.30 811.01,357.97 811.56,357.56 ZM 784.71 347.16 L 782.00 346.81 L 782.00 346.76 Z" fill="rgb(90,97,44)"/>
<path d="M 637.63 328.30 C639.01,329.68 642.00,326.84 642.00,324.15 C642.00,321.29 645.13,313.91 646.87,312.59 C646.65,312.90 646.39,313.26 646.08,313.67 C643.10,317.71 640.87,330.36 642.37,334.75 C643.39,337.76 640.53,337.85 638.93,334.87 C638.42,333.92 638.02,332.43 637.73,330.67 C637.68,329.91 637.63,329.10 637.60,328.27 ZM 639.05 451.33 C641.81,451.33 642.00,451.58 642.00,455.23 C642.00,456.92 642.21,458.07 642.55,458.44 C642.33,458.64 642.07,458.75 641.75,458.81 C640.56,459.04 640.00,458.51 640.00,457.18 C640.00,456.10 639.33,454.95 638.50,454.64 C637.42,454.22 637.00,454.75 637.00,456.53 C637.00,458.73 636.18,459.55 634.99,458.63 C635.30,458.76 635.61,457.75 635.80,455.26 C636.07,451.65 636.33,451.33 639.05,451.33 ZM 702.76 273.43 C702.59,273.25 701.37,273.02 699.53,272.79 C698.86,272.59 698.20,272.44 697.58,272.33 C700.84,272.43 703.27,272.35 707.31,272.11 C708.74,272.02 709.06,271.31 708.81,268.75 C708.53,265.77 708.25,265.53 705.50,265.89 C704.89,265.97 703.68,266.03 702.10,266.08 C702.65,265.80 703.21,265.43 703.85,264.95 C708.11,261.81 710.00,262.89 710.00,268.47 C710.00,271.42 709.56,273.00 708.75,273.01 C708.06,273.02 706.59,273.27 705.47,273.57 C704.36,273.87 703.14,273.81 702.76,273.43 ZM 691.00 271.98 C692.37,272.06 693.57,272.14 694.65,272.20 C694.56,272.21 694.47,272.23 694.39,272.26 C693.33,272.17 692.21,272.08 691.07,272.00 C683.20,271.48 679.29,270.76 677.36,269.50 L 674.66 267.73 L 677.08 266.50 C680.33,264.85 689.70,263.71 690.43,264.88 C690.66,265.26 692.07,265.75 693.89,266.14 C693.26,266.13 692.63,266.12 692.00,266.11 C681.19,265.94 677.00,266.43 677.00,267.86 C677.00,269.70 682.99,271.46 691.00,271.98 ZM 800.51 410.02 C800.47,409.95 800.44,409.83 800.42,409.66 C800.79,410.59 802.01,411.02 803.74,410.82 C806.45,410.51 806.49,410.39 806.18,404.61 C806.01,401.37 805.27,398.13 804.55,397.41 C803.47,396.32 802.94,397.15 801.54,402.13 C801.26,403.15 801.01,404.17 800.82,405.12 C801.00,403.95 801.23,402.64 801.51,401.30 C803.85,389.97 804.46,389.97 806.04,401.33 C806.63,405.56 806.83,409.46 806.50,410.01 C805.70,411.29 801.30,411.30 800.51,410.02 ZM 746.24 282.50 C746.59,280.67 746.47,278.39 746.07,276.82 C746.30,277.51 747.08,278.21 748.00,278.50 C750.30,279.23 750.70,281.00 748.57,281.00 C747.78,281.00 746.85,281.90 746.50,283.00 C746.07,284.34 745.49,284.98 744.84,284.91 C745.45,284.90 745.94,284.09 746.24,282.50 ZM 687.68 452.35 C686.69,451.35 686.85,448.00 687.89,448.00 C689.20,448.00 690.21,451.19 689.22,452.18 C688.75,452.65 688.06,452.73 687.68,452.35 ZM 763.64 452.31 C762.44,451.11 762.99,449.00 764.50,449.00 C765.33,449.00 766.00,449.65 766.00,450.44 C766.00,452.11 764.57,453.24 763.64,452.31 ZM 645.78 308.88 C643.92,307.89 643.31,308.10 641.36,310.37 C641.14,310.62 640.93,310.90 640.72,311.22 C641.90,309.36 643.14,308.00 643.88,308.00 C644.20,308.00 644.97,308.37 645.78,308.88 ZM 637.84 318.15 C637.92,317.63 638.00,317.14 638.10,316.69 C638.56,315.25 639.28,313.70 640.06,312.31 C639.18,313.94 638.41,316.02 637.84,318.15 ZM 634.90 458.55 C634.82,458.49 634.75,458.41 634.67,458.33 C634.30,457.97 634.00,454.37 634.00,450.33 C634.00,454.89 634.44,458.00 634.90,458.55 ZM 746.02 276.65 C745.79,275.82 745.48,275.21 745.12,275.05 C745.64,275.04 746.00,275.48 746.00,276.43 C746.00,276.50 746.01,276.58 746.02,276.65 ZM 643.68 444.93 C643.20,442.34 642.13,442.32 640.08,444.25 C642.21,442.24 643.29,442.26 643.68,444.93 Z" fill="rgb(160,167,159)"/>
<path d="M 0.00 384.00 L 0.00 0.00 L 682.50 0.00 L 1365.00 0.00 L 1365.00 384.00 L 1365.00 768.00 L 682.50 768.00 L 0.00 768.00 L 0.00 384.00 ZM 615.77 457.32 C618.51,454.58 617.40,452.59 614.48,455.02 C611.83,457.22 610.00,455.41 610.00,450.59 C610.00,445.46 611.33,444.08 613.96,446.47 C615.98,448.29 617.62,447.05 616.62,444.45 C615.94,442.68 609.90,442.50 608.20,444.20 C606.19,446.21 606.73,454.38 609.07,457.37 C611.66,460.66 612.44,460.65 615.77,457.32 ZM 667.69 457.83 C669.54,456.09 670.00,454.60 670.00,450.40 C670.00,442.87 666.31,439.86 661.44,443.42 C658.43,445.62 658.76,455.57 661.92,458.13 C664.80,460.47 664.88,460.46 667.69,457.83 ZM 726.79 450.49 C726.61,445.59 726.06,442.51 725.32,442.27 C724.60,442.03 724.01,443.19 723.82,445.18 C723.38,449.74 720.00,450.53 720.00,446.07 C720.00,444.01 719.51,443.00 718.50,443.00 C717.29,443.00 717.00,444.57 717.00,451.12 C717.00,458.08 717.21,459.07 718.44,458.05 C719.23,457.39 720.02,455.65 720.19,454.18 C720.62,450.42 723.42,450.67 723.79,454.50 C724.24,459.09 724.91,460.49 726.08,459.32 C726.64,458.76 726.96,454.85 726.79,450.49 ZM 739.25 457.19 C741.08,455.63 741.75,446.73 740.22,444.33 C738.88,442.21 734.42,441.72 732.65,443.50 C729.07,447.08 729.39,455.76 733.20,458.43 C735.39,459.96 736.23,459.79 739.25,457.19 ZM 753.69 457.83 C754.96,456.63 756.00,454.60 756.00,453.33 C756.00,451.30 755.51,451.00 752.25,451.02 L 748.50 451.04 L 750.78 452.80 C752.55,454.16 752.79,454.81 751.85,455.75 C749.85,457.75 748.00,455.21 748.00,450.44 C748.00,445.49 749.35,444.10 751.89,446.40 C754.30,448.58 755.20,448.41 754.82,445.83 C754.35,442.65 749.49,441.24 746.94,443.55 C744.16,446.07 744.20,455.20 747.00,458.00 C749.55,460.55 750.82,460.52 753.69,457.83 ZM 571.44 456.78 C573.52,453.81 573.42,447.72 571.25,445.17 C570.25,443.99 568.00,442.98 566.00,442.80 L 562.50 442.50 L 562.20 449.40 C562.04,453.20 562.13,456.91 562.42,457.65 C563.30,459.94 569.66,459.33 571.44,456.78 ZM 584.50 457.50 C584.50,456.95 583.26,456.36 581.75,456.18 C578.46,455.81 577.91,452.52 581.00,451.71 C582.10,451.42 583.00,450.70 583.00,450.09 C583.00,449.49 582.10,449.00 581.00,449.00 C578.16,449.00 578.31,445.24 581.17,444.82 C585.30,444.21 584.44,442.00 580.08,442.00 L 576.00 442.00 L 576.00 450.56 L 576.00 459.11 L 580.25 458.81 C582.59,458.64 584.50,458.05 584.50,457.50 ZM 623.00 457.00 C624.39,454.40 627.68,454.43 628.52,457.06 C629.40,459.85 631.58,458.91 631.17,455.91 C630.06,447.66 626.35,440.31 624.33,442.33 C623.83,442.83 620.00,456.68 620.00,457.99 C620.00,459.72 621.88,459.10 623.00,457.00 ZM 637.00 456.53 C637.00,454.75 637.42,454.22 638.50,454.64 C639.33,454.95 640.00,456.10 640.00,457.18 C640.00,458.51 640.56,459.04 641.75,458.81 C643.21,458.53 643.55,457.18 643.79,450.74 C644.09,442.75 643.24,441.26 640.08,444.25 C639.02,445.25 638.66,445.25 638.29,444.25 C638.04,443.56 636.97,443.00 635.92,443.00 C634.20,443.00 634.00,443.77 634.00,450.33 C634.00,454.37 634.30,457.97 634.67,458.33 C636.02,459.69 637.00,458.93 637.00,456.53 ZM 649.82 455.92 C650.01,454.51 651.47,452.66 653.31,451.49 C659.07,447.83 657.68,443.00 650.88,443.00 L 647.00 443.00 L 647.00 451.08 C647.00,457.10 647.32,459.06 648.25,458.76 C648.94,458.53 649.64,457.26 649.82,455.92 ZM 688.79 455.00 C689.93,455.00 690.99,455.85 691.29,457.00 C691.58,458.10 692.30,459.00 692.91,459.00 C694.31,459.00 694.29,458.83 692.17,450.50 C690.76,444.98 689.95,443.44 688.37,443.20 C686.68,442.96 686.08,443.89 684.68,448.94 C683.75,452.26 683.01,455.99 683.03,457.23 L 683.07 459.50 L 684.94 457.25 C685.98,456.01 687.71,455.00 688.79,455.00 ZM 761.71 457.00 C762.33,454.64 767.00,454.15 767.00,456.44 C767.00,458.00 768.81,459.53 769.65,458.68 C769.94,458.39 769.42,454.78 768.50,450.66 C766.87,443.33 765.12,440.90 763.19,443.31 C762.08,444.70 759.00,455.06 759.00,457.40 C759.00,459.69 761.09,459.38 761.71,457.00 ZM 776.84 456.02 L 777.18 453.69 L 779.42 456.51 C782.25,460.05 784.78,459.12 782.36,455.42 C780.86,453.14 780.86,452.81 782.37,451.15 C786.03,447.10 783.72,443.00 777.80,443.00 L 774.00 443.00 L 774.00 451.08 C774.00,457.10 774.32,459.06 775.25,458.76 C775.94,458.53 776.65,457.30 776.84,456.02 ZM 854.62 440.55 C854.93,439.75 854.45,438.06 853.56,436.80 C851.86,434.37 851.49,433.14 847.95,417.80 L 845.71 408.09 L 848.81 404.57 C852.49,400.37 853.43,396.20 852.76,386.94 C852.23,379.54 850.60,376.10 846.29,373.27 C844.09,371.83 841.73,371.56 833.10,371.77 C822.49,372.02 819.52,372.92 821.80,375.20 C823.46,376.86 823.46,400.14 821.80,401.80 C820.87,402.73 820.87,403.27 821.80,404.20 C823.43,405.83 823.44,428.32 821.81,430.93 C820.13,433.63 822.03,435.59 827.13,436.40 C832.52,437.27 834.55,435.77 832.42,432.52 C831.30,430.80 830.99,427.90 831.21,420.87 L 831.50 411.50 L 834.50 411.50 C837.47,411.50 837.53,411.61 840.23,422.00 C841.76,427.90 842.73,433.86 842.46,435.61 C841.93,438.89 843.03,440.42 846.50,441.28 C850.60,442.28 854.07,441.97 854.62,440.55 ZM 484.83 438.33 C486.51,437.26 486.93,436.39 486.35,435.18 C485.90,434.25 485.39,428.04 485.21,421.37 L 484.89 409.24 L 488.69 408.59 C490.79,408.23 493.74,407.69 495.25,407.39 L 498.00 406.84 L 498.00 418.86 C498.00,425.80 497.58,431.14 497.00,431.50 C496.45,431.84 496.00,433.04 496.00,434.17 C496.00,436.05 496.40,436.17 500.75,435.54 C503.36,435.16 506.53,434.19 507.78,433.38 C509.89,432.02 509.94,431.76 508.53,429.74 C506.17,426.38 506.27,376.49 508.63,373.11 C510.00,371.16 510.04,370.64 508.88,369.88 C507.65,369.08 497.13,369.69 496.09,370.62 C495.86,370.82 496.20,372.14 496.84,373.54 C498.11,376.34 498.47,397.60 497.25,398.33 C496.84,398.58 494.02,398.95 491.00,399.14 L 485.50 399.50 L 485.50 387.00 C485.50,380.12 485.73,373.60 486.00,372.50 C486.46,370.67 485.93,370.48 479.75,370.20 C474.44,369.97 473.00,370.21 473.00,371.33 C473.00,372.11 473.67,373.32 474.50,374.00 C475.69,374.99 476.00,377.87 476.00,387.92 C476.00,395.76 475.58,401.02 474.91,401.69 C474.12,402.48 474.12,403.35 474.91,404.83 C475.55,406.02 476.00,412.58 476.00,420.61 C476.00,431.87 475.71,434.67 474.38,436.13 C473.49,437.12 473.04,438.66 473.38,439.55 C473.88,440.86 474.83,441.04 478.25,440.49 C480.59,440.12 483.55,439.14 484.83,438.33 ZM 819.49 431.02 C819.82,430.48 819.39,427.98 818.54,425.46 C817.68,422.95 816.31,416.30 815.48,410.69 C814.66,405.09 813.34,397.58 812.54,394.00 C810.90,386.57 810.42,378.32 811.49,375.75 C812.14,374.17 811.46,374.00 804.61,374.00 C800.42,374.00 797.00,374.20 797.00,374.45 C797.00,374.70 797.49,375.98 798.08,377.28 C798.93,379.15 798.60,382.13 796.55,391.08 C791.77,411.97 789.76,419.48 788.22,422.14 C785.82,426.30 787.15,428.00 792.80,428.00 C798.46,428.00 799.32,427.46 797.88,424.78 C797.30,423.70 797.10,421.73 797.43,420.41 C797.92,418.48 798.68,418.00 801.27,418.01 C807.41,418.04 809.00,418.95 809.00,422.42 C809.00,424.17 808.50,426.10 807.89,426.71 C805.60,429.00 809.80,431.82 815.69,431.94 C817.45,431.97 819.15,431.56 819.49,431.02 ZM 536.15 425.25 C542.56,419.46 543.00,417.62 543.00,396.23 C543.00,383.07 543.36,377.04 544.18,376.22 C546.01,374.39 544.30,373.50 539.00,373.50 C533.24,373.50 532.25,374.24 533.90,377.31 C534.78,378.96 535.04,384.74 534.82,397.73 C534.51,415.32 534.43,415.92 532.08,418.42 C529.05,421.64 526.51,421.70 524.48,418.61 C523.17,416.61 522.96,413.09 523.21,396.86 C523.37,386.21 523.72,376.83 524.00,376.00 C524.40,374.79 523.28,374.44 518.25,374.20 C513.37,373.97 512.00,374.22 512.00,375.33 C512.00,376.11 512.67,377.32 513.50,378.00 C514.75,379.03 515.00,382.79 515.00,400.19 C515.00,413.64 515.40,421.91 516.12,423.32 C518.18,427.34 521.20,428.95 526.75,428.98 C531.42,429.00 532.45,428.59 536.15,425.25 ZM 565.00 425.36 C570.22,425.02 575.06,424.29 575.75,423.74 C576.44,423.20 577.00,420.59 577.00,417.88 C577.00,412.43 575.18,411.35 572.16,415.02 C570.92,416.54 569.12,417.10 565.00,417.27 L 559.50 417.50 L 559.21 409.75 L 558.92 402.00 L 562.41 402.00 C564.69,402.00 566.24,402.61 566.89,403.75 C568.56,406.71 570.41,403.60 570.46,397.77 C570.49,393.50 570.17,392.49 568.68,392.19 C567.67,391.99 566.02,392.58 565.00,393.50 C563.98,394.42 562.33,395.02 561.32,394.83 C559.81,394.54 559.45,393.33 559.20,387.74 L 558.91 381.00 L 564.42 381.00 C568.75,381.00 570.35,381.45 571.91,383.13 C575.12,386.58 577.00,384.94 577.00,378.71 L 577.00 373.36 L 562.75 373.80 C554.91,374.04 548.32,374.41 548.09,374.61 C547.86,374.82 548.43,375.81 549.34,376.82 C551.38,379.08 551.70,393.90 549.78,396.99 C548.81,398.54 548.81,399.21 549.78,400.18 C551.32,401.72 551.44,419.30 549.92,422.14 C548.24,425.29 549.54,427.34 552.76,426.61 C554.27,426.27 559.78,425.71 565.00,425.36 ZM 782.72 422.54 C784.59,420.37 785.00,418.72 785.00,413.38 C785.00,409.80 785.51,405.92 786.13,404.76 C787.79,401.66 784.89,400.00 777.81,400.00 C772.09,400.00 772.00,400.05 772.00,402.84 C772.00,404.90 772.69,405.99 774.50,406.82 C776.41,407.69 777.00,408.71 777.00,411.15 C777.00,417.02 771.82,419.95 767.83,416.35 C766.21,414.88 766.00,412.95 766.00,399.55 C766.00,382.97 766.31,382.00 771.58,382.00 C775.43,382.00 776.73,383.40 777.17,388.00 C777.84,395.01 785.00,392.06 785.00,384.77 C785.00,372.74 765.59,369.42 758.95,380.31 C757.24,383.11 757.01,385.42 757.00,399.30 C757.00,416.09 757.51,418.42 762.15,422.62 C765.55,425.70 766.79,426.01 773.97,425.58 C779.47,425.25 780.78,424.80 782.72,422.54 ZM 718.14 422.00 C717.15,415.19 716.97,397.74 717.88,396.65 C718.51,395.89 718.54,394.88 717.96,393.97 C716.47,391.61 716.87,376.85 718.50,374.00 C719.29,372.62 719.95,371.16 719.96,370.75 C719.98,370.34 717.19,370.00 713.75,370.00 L 707.50 370.00 L 707.50 381.25 L 707.50 392.50 L 702.00 392.50 L 696.50 392.50 L 696.21 384.14 C695.99,377.90 696.31,375.18 697.46,373.42 C698.31,372.13 699.00,370.83 699.00,370.54 C699.00,370.24 695.85,370.00 692.00,370.00 C684.97,370.00 683.71,370.69 686.50,373.00 C688.74,374.86 688.62,390.66 686.35,393.17 C684.81,394.87 684.81,395.13 686.35,396.83 C688.54,399.25 688.68,416.51 686.54,419.35 C684.13,422.53 685.70,424.00 691.48,424.00 C697.77,424.00 699.70,422.44 697.43,419.20 C696.32,417.62 695.99,414.97 696.21,409.27 L 696.50 401.50 L 702.38 401.20 L 708.26 400.89 L 707.81 412.41 C707.32,425.22 707.03,424.68 714.50,424.56 C718.18,424.50 718.47,424.30 718.14,422.00 ZM 746.63 420.63 L 751.00 416.26 L 751.16 408.38 C751.57,388.17 751.14,381.66 749.22,379.04 C743.62,371.39 730.48,371.04 725.65,378.41 C723.30,382.00 723.22,413.59 725.55,418.09 C727.70,422.25 732.60,424.99 737.88,425.00 C741.72,425.00 742.80,424.46 746.63,420.63 ZM 593.02 422.48 C594.04,421.24 593.97,420.62 592.59,419.10 C591.28,417.65 590.97,415.71 591.20,410.37 C591.49,403.82 591.62,403.50 593.95,403.50 C596.06,403.50 596.79,404.48 599.14,410.50 C600.64,414.35 601.90,418.42 601.94,419.55 C602.03,422.60 603.96,424.00 608.08,424.00 C613.23,424.00 614.99,421.69 612.14,418.65 C609.88,416.25 605.00,404.82 605.00,401.93 C605.00,401.00 605.74,399.63 606.65,398.87 C610.63,395.58 612.34,385.16 609.74,380.10 C606.98,374.74 603.98,373.65 592.40,373.80 C586.54,373.87 581.49,374.18 581.18,374.48 C580.88,374.79 581.17,375.57 581.82,376.22 C583.33,377.73 583.50,418.57 582.00,419.50 C581.45,419.84 581.00,420.99 581.00,422.06 C581.00,423.74 581.72,424.00 586.38,424.00 C589.97,424.00 592.17,423.50 593.02,422.48 ZM 636.66 421.43 C636.99,420.57 636.76,419.36 636.13,418.73 C635.37,417.97 635.00,411.47 635.00,398.80 C635.00,380.39 635.04,380.00 637.09,380.00 C638.35,380.00 639.40,380.80 639.71,382.00 C640.40,384.64 642.51,384.54 644.44,381.78 C646.37,379.02 646.45,374.99 644.61,372.48 C643.44,370.89 642.96,370.79 641.66,371.87 C640.51,372.82 636.76,373.08 627.55,372.83 L 615.00 372.50 L 614.82 375.00 C614.17,383.88 615.91,386.65 619.61,382.66 C621.03,381.14 622.93,380.03 623.84,380.21 C625.32,380.50 625.50,382.79 625.50,401.77 L 625.50 423.00 L 630.78 423.00 C634.65,423.00 636.22,422.58 636.66,421.43 ZM 667.93 421.54 C669.49,420.73 671.94,418.67 673.38,416.96 C675.96,413.89 676.00,413.63 676.00,398.17 C675.99,384.39 675.76,382.11 674.04,379.30 C671.18,374.60 666.80,372.69 660.17,373.24 C655.40,373.63 654.23,374.17 651.34,377.33 L 648.00 380.97 L 648.00 396.52 C648.00,414.17 648.91,417.75 654.19,420.97 C658.09,423.35 663.96,423.59 667.93,421.54 ZM 631.57 358.89 C631.95,358.27 630.06,355.59 627.28,352.80 L 622.30 347.83 L 610.15 347.27 C596.78,346.65 597.43,347.07 598.64,339.75 C599.11,336.93 599.74,336.00 601.18,336.00 C607.69,336.00 616.00,326.41 616.00,318.90 C616.00,316.44 615.07,314.83 612.00,312.00 C609.71,309.89 608.00,307.38 608.00,306.15 C608.00,299.24 595.07,295.47 587.90,300.28 C585.08,302.18 584.45,303.27 584.20,306.72 L 583.89 310.87 L 580.60 308.93 C578.80,307.86 576.80,305.87 576.18,304.49 C572.01,295.33 553.50,296.28 552.00,305.73 C551.65,307.91 550.42,309.61 548.01,311.22 C546.10,312.51 544.10,314.76 543.59,316.23 C541.44,322.34 547.99,332.92 555.50,335.46 C559.43,336.79 559.50,336.90 559.50,341.66 L 559.50 346.50 L 554.50 347.16 C551.75,347.53 546.09,347.86 541.93,347.91 C533.39,348.01 526.42,349.79 519.57,353.61 C509.39,359.31 512.36,359.61 579.19,359.83 C616.17,359.95 631.08,359.68 631.57,358.89 ZM 810.78 358.16 C812.03,357.47 812.82,356.51 812.53,356.04 C811.36,354.15 796.71,348.95 789.59,347.89 L 782.00 346.76 L 782.00 335.08 C782.00,327.92 782.43,322.97 783.10,322.30 C783.90,321.50 781.82,318.44 775.49,311.10 C770.70,305.55 766.39,301.00 765.91,301.00 C765.43,301.00 764.74,299.76 764.37,298.25 C763.49,294.69 762.40,294.03 757.27,294.02 C753.83,294.00 752.73,294.48 751.36,296.57 C749.68,299.13 749.60,299.15 737.57,298.87 C726.18,298.62 725.27,298.74 722.26,300.97 C718.25,303.93 703.00,320.48 703.00,321.87 C703.00,322.44 703.62,323.26 704.37,323.70 C706.10,324.71 707.22,345.38 705.63,346.97 C705.07,347.53 703.38,348.00 701.90,348.00 C698.14,348.00 689.37,355.92 690.34,358.43 C690.99,360.14 694.00,360.21 749.76,359.82 C794.48,359.51 809.04,359.12 810.78,358.16 ZM 671.91 355.55 C677.87,352.46 685.14,344.83 688.15,338.50 C692.84,328.63 691.85,315.80 685.79,307.75 C682.91,303.92 679.06,296.76 675.61,288.77 C673.50,283.90 672.44,282.70 668.56,280.82 C664.20,278.70 664.00,278.42 664.00,274.30 C664.00,270.16 664.12,270.00 667.08,270.00 C669.60,270.00 671.31,271.22 676.31,276.60 C686.53,287.57 694.79,290.08 707.71,286.16 C717.26,283.26 730.00,273.92 730.00,269.82 C730.00,267.69 720.13,260.20 711.50,255.76 C706.81,253.35 703.86,252.58 698.00,252.24 C689.03,251.73 683.97,253.54 676.64,259.88 C671.97,263.92 666.95,265.34 665.52,263.03 C664.55,261.46 667.48,256.78 671.95,252.78 C675.42,249.67 675.93,248.74 675.08,247.15 C671.86,241.12 665.05,246.43 657.95,260.50 C655.81,264.74 651.85,265.02 647.14,261.25 C636.86,253.04 626.40,250.14 617.39,252.98 C612.13,254.64 601.49,261.02 596.05,265.79 L 591.59 269.69 L 596.80 275.20 C606.91,285.89 621.25,290.40 632.85,286.55 C636.95,285.19 639.34,283.37 644.81,277.42 C650.04,271.75 652.28,270.00 654.33,270.00 C656.83,270.00 657.00,270.29 657.00,274.51 C657.00,278.83 656.84,279.08 653.02,280.61 C648.82,282.29 646.10,285.81 644.05,292.22 C643.40,294.26 640.45,299.56 637.51,303.99 C630.83,314.02 628.64,320.32 629.19,327.85 C630.05,339.47 637.32,349.82 648.42,355.18 C653.78,357.78 655.33,358.08 661.50,357.72 C665.50,357.49 669.96,356.57 671.91,355.55 ZM 582.84 282.00 C584.47,279.79 584.69,279.00 583.65,279.00 C582.87,279.00 582.00,278.10 581.71,277.00 C581.42,275.90 580.65,275.00 580.00,275.00 C579.35,275.00 578.58,275.90 578.29,277.00 C578.00,278.10 577.14,279.00 576.38,279.00 C575.62,279.00 575.00,279.27 575.00,279.61 C575.00,280.38 579.31,284.96 580.06,284.98 C580.37,284.99 581.62,283.65 582.84,282.00 ZM 746.50 283.00 C746.85,281.90 747.78,281.00 748.57,281.00 C750.70,281.00 750.30,279.23 748.00,278.50 C746.90,278.15 746.00,277.22 746.00,276.43 C746.00,274.35 744.24,274.68 743.00,277.00 C742.41,278.10 741.01,279.00 739.88,279.00 C738.69,279.00 738.01,279.52 738.25,280.25 C738.48,280.94 739.45,281.50 740.41,281.51 C741.37,281.51 742.59,282.30 743.12,283.26 C744.41,285.56 745.72,285.46 746.50,283.00 ZM 663.08 455.15 C661.75,452.67 661.70,448.01 662.99,446.00 C664.52,443.59 667.45,446.11 667.80,450.15 C668.01,452.58 667.52,454.13 666.13,455.38 C664.23,457.10 664.12,457.09 663.08,455.15 ZM 734.19 455.79 C732.44,454.04 732.72,447.48 734.61,445.91 C738.22,442.91 740.74,452.12 737.19,455.33 C735.79,456.60 735.10,456.70 734.19,455.79 ZM 565.67 455.33 C565.30,454.97 565.00,452.69 565.00,450.26 C565.00,446.27 565.21,445.89 567.25,446.18 C568.99,446.43 569.57,447.26 569.82,449.82 C570.23,454.07 567.72,457.39 565.67,455.33 ZM 650.00 447.57 C650.00,446.65 650.85,446.00 652.08,446.00 C654.52,446.00 654.18,448.34 651.67,448.82 C650.68,449.01 650.00,448.50 650.00,447.57 ZM 777.00 448.00 C777.00,446.49 777.52,445.95 778.75,446.19 C779.71,446.38 780.50,447.19 780.50,448.00 C780.50,448.81 779.71,449.62 778.75,449.81 C777.52,450.05 777.00,449.51 777.00,448.00 ZM 831.72 402.38 C831.32,401.99 831.00,397.04 831.00,391.38 L 831.00 381.09 L 834.59 380.42 C837.35,379.90 838.80,380.20 840.84,381.73 C843.25,383.52 843.53,384.42 843.79,391.16 C844.03,397.31 843.76,398.90 842.29,400.20 C840.30,401.96 832.84,403.50 831.72,402.38 ZM 800.42 409.65 C800.11,408.83 800.61,405.45 801.54,402.13 C802.94,397.15 803.47,396.32 804.55,397.41 C805.27,398.13 806.01,401.37 806.18,404.61 C806.49,410.39 806.45,410.51 803.74,410.82 C802.00,411.02 800.78,410.59 800.42,409.65 ZM 734.19 414.96 C732.13,413.04 732.00,412.06 732.00,397.94 L 732.00 382.96 L 734.59 381.78 C736.68,380.83 737.71,380.89 739.84,382.08 L 742.50 383.57 L 742.78 398.43 C743.02,411.20 742.82,413.54 741.37,415.14 C739.19,417.55 736.91,417.50 734.19,414.96 ZM 591.41 392.49 C591.06,391.11 591.08,387.96 591.45,385.49 C592.03,381.62 592.45,381.00 594.50,381.00 C595.80,381.00 598.02,381.44 599.43,381.98 C601.65,382.82 602.00,383.55 602.00,387.32 C602.00,392.53 599.81,395.00 595.19,395.00 C592.66,395.00 591.91,394.51 591.41,392.49 ZM 658.00 413.00 C656.20,411.20 656.00,409.67 656.00,397.93 C656.00,390.75 656.47,384.00 657.04,382.93 C658.40,380.39 664.08,380.32 666.35,382.83 C667.71,384.33 668.00,386.96 668.00,397.65 C668.00,409.95 667.87,410.77 665.69,412.83 C662.81,415.53 660.58,415.58 658.00,413.00 ZM 566.41 345.64 C566.11,344.85 566.01,342.54 566.18,340.51 C566.46,337.25 566.94,336.65 570.15,335.55 C572.15,334.87 575.03,333.34 576.53,332.15 C579.75,329.62 582.55,329.38 583.38,331.55 C583.71,332.40 586.03,334.01 588.54,335.12 L 593.10 337.14 L 592.80 341.82 L 592.50 346.50 L 579.73 346.78 C569.41,347.01 566.86,346.79 566.41,345.64 ZM 761.69 346.85 C760.76,346.33 760.00,345.11 760.00,344.15 C760.00,342.43 761.78,340.00 763.04,340.00 C763.73,340.00 766.00,344.55 766.00,345.94 C766.00,347.33 763.50,347.86 761.69,346.85 ZM 711.71 346.38 C711.32,345.99 711.00,340.18 711.00,333.47 C711.00,322.52 711.22,320.97 713.16,318.38 C716.65,313.73 726.35,304.00 727.47,304.03 C729.00,304.07 736.11,310.78 740.88,316.68 L 745.06 321.85 L 744.78 334.18 L 744.50 346.50 L 741.25 346.81 L 738.00 347.13 L 738.00 338.06 L 738.00 329.00 L 728.04 329.00 L 718.08 329.00 L 717.79 337.75 C717.51,346.29 717.44,346.51 714.96,346.80 C713.57,346.96 712.10,346.77 711.71,346.38 ZM 730.80 320.80 C731.46,320.14 732.00,318.65 732.00,317.50 C732.00,316.35 731.46,314.86 730.80,314.20 C729.06,312.46 724.32,312.71 723.61,314.58 C722.02,318.71 723.75,322.00 727.50,322.00 C728.66,322.00 730.14,321.46 730.80,320.80 ZM 722.00 345.05 C722.00,343.97 722.50,342.00 723.10,340.67 C723.92,338.88 723.90,337.68 723.02,336.04 C721.49,333.17 722.13,332.64 725.37,334.12 C727.59,335.13 728.30,335.04 730.00,333.50 C732.66,331.09 733.69,332.33 732.24,336.16 C731.30,338.66 731.37,339.81 732.58,342.16 C734.58,346.02 733.53,347.58 730.34,345.49 C728.08,344.01 727.65,344.00 725.47,345.43 C722.38,347.45 722.00,347.41 722.00,345.05 ZM 750.67 346.33 C750.30,345.97 750.00,340.55 750.00,334.30 L 750.00 322.94 L 763.25 323.22 L 776.50 323.50 L 776.50 335.00 L 776.50 346.50 L 773.50 346.50 L 770.50 346.50 L 770.21 338.25 L 769.92 330.00 L 763.46 330.00 L 757.00 330.00 L 757.00 336.57 C757.00,340.18 756.53,344.00 755.96,345.07 C754.95,346.96 752.00,347.66 750.67,346.33 ZM 763.64 337.31 C762.40,336.07 763.02,333.00 764.50,333.00 C765.33,333.00 766.00,333.87 766.00,334.94 C766.00,337.03 764.68,338.35 763.64,337.31 ZM 637.63 328.30 C635.48,326.14 637.93,314.36 641.36,310.37 C643.32,308.09 643.92,307.89 645.81,308.90 C648.17,310.16 648.61,311.51 646.99,312.50 C645.28,313.56 642.00,321.22 642.00,324.15 C642.00,326.84 639.01,329.68 637.63,328.30 ZM 612.59 273.14 C612.23,272.56 612.23,270.94 612.58,269.53 C612.94,268.10 612.71,266.36 612.06,265.58 C610.03,263.12 612.79,262.71 616.39,264.93 C620.19,267.28 624.14,267.49 634.02,265.86 C640.06,264.86 641.25,264.93 643.49,266.40 C646.54,268.40 646.07,269.52 641.40,271.48 C638.91,272.52 636.69,272.70 633.55,272.11 C631.14,271.66 627.01,271.70 624.34,272.20 C614.39,274.07 613.22,274.17 612.59,273.14 ZM 691.00 271.98 C682.99,271.46 677.00,269.70 677.00,267.86 C677.00,266.43 681.19,265.94 692.00,266.11 C697.78,266.20 703.85,266.10 705.50,265.89 C708.25,265.53 708.53,265.77 708.81,268.75 C709.06,271.31 708.74,272.02 707.31,272.11 C701.04,272.49 698.63,272.47 691.00,271.98 Z" fill="rgb(254,254,254)"/>
</g>
</svg>